<svg width="16" height="16" viewBox="0 0 16 16" fill="none" xmlns="http://www.w3.org/2000/svg">
    <g id="Frame">
        <path id="Vector 15" d="M2 14V7.5C2 6.11929 3.11929 5 4.5 5V5C5.88071 5 7 6.11929 7 7.5V14" stroke="#666666"
              stroke-linecap="round" stroke-linejoin="round"/>
        <path id="Vector 16" d="M7 14V7.5C7 6.11929 8.11929 5 9.5 5V5C10.8807 5 12 6.11929 12 7.5V14" stroke="#666666"
              stroke-linecap="round" stroke-linejoin="round"/>
        <path id="Vector 17"
              d="M14.5 5H13L14.35 3.2C14.4474 3.07018 14.5 2.91228 14.5 2.75V2.75C14.5 2.33579 14.1642 2 13.75 2V2C13.3358 2 13 2.33579 13 2.75V3"
              stroke="#666666" stroke-linecap="round" stroke-linejoin="round"/>
    </g>
</svg>
