<svg xmlns="http://www.w3.org/2000/svg" xmlns:xlink="http://www.w3.org/1999/xlink" fill="none" version="1.1" width="5"
     height="9" viewBox="0 0 5 9">
    <g>
        <g>
            <path d="M3.79289,4.5L0.146634,8.14626L0.146447,8.14645Q0.07612000000000002,8.21677,0.03805999999999998,8.30866Q0,8.40054,0,8.5Q0,8.59946,0.03805999999999998,8.69134Q0.07612000000000002,8.78323,0.146447,8.85355Q0.216773,8.92388,0.308658,8.96194Q0.4005439,9,0.5,9Q0.5994562,9,0.691342,8.96194Q0.783227,8.92388,0.853553,8.85355L4.85355,4.85355Q4.88837,4.81873,4.91573,4.77778Q4.94309,4.73684,4.96194,4.69134Q4.98078,4.64584,4.99039,4.59754Q5,4.54924,5,4.5Q5,4.45075,4.99039,4.40245Q4.98078,4.354150000000001,4.96194,4.30866Q4.94309,4.26316,4.91573,4.2222100000000005Q4.88837,4.18127,4.85355,4.14645L0.853613,0.14650600000000003L0.853553,0.146447Q0.783227,0.07612000000000002,0.691342,0.03805999999999998Q0.5994562,0,0.5,0Q0.4005438,0,0.308658,0.03805999999999998Q0.216773,0.07612000000000002,0.146447,0.146447Q0.07612000000000002,0.216773,0.03805999999999998,0.308658Q0,0.4005438,0,0.5Q0,0.5994562,0.03805999999999998,0.691342Q0.07612000000000002,0.783227,0.146447,0.853553L0.14650600000000003,0.853613L3.79289,4.5Z"
                  fill-rule="evenodd" fill="#666666" fill-opacity="1"/>
        </g>
    </g>
</svg>