<svg xmlns="http://www.w3.org/2000/svg" xmlns:xlink="http://www.w3.org/1999/xlink" fill="none" version="1.1" width="11"
     height="4" viewBox="0 0 11 4">
    <g>
        <path d="M5.75725,3.92875L10.7572,0.9287460000000001Q10.8128,0.895429,10.858,0.849065Q10.9032,0.802701,10.9351,0.746349Q10.967,0.689998,10.9835,0.627377Q11,0.564757,11,0.5000000000000002L11,0.49376352Q10.9983,0.358634,10.9287,0.24275200000000002Q10.8776,0.15746900000000003,10.7977,0.09826000000000001Q10.7178,0.039049999999999974,10.6213,0.014929000000000026Q10.5616,0,10.5,0Q10.48791,0,10.47584,0.0005839999999999734Q10.35042,0.006651999999999991,10.24275,0.07125399999999998L5.5,2.9169L0.757315,0.07129400000000002L0.7572479999999999,0.07125399999999998Q0.6384920000000001,0,0.49999999999999983,0Q0.49034694,0,0.4807011,0.0003730000000000122Q0.4184424,0.002776999999999974,0.358678,0.020388000000000017Q0.298913,0.037997999999999976,0.24529800000000002,0.06973600000000002Q0.191683,0.10147499999999998,0.14749600000000002,0.14539999999999997Q0.10330899999999998,0.189326,0.07125399999999998,0.24275200000000002Q0,0.361508,0,0.5Q0,0.50965306,0.0003730000000000122,0.5192989Q0.002776999999999974,0.5815576,0.020388000000000017,0.641322Q0.037997999999999976,0.701087,0.06973600000000002,0.754702Q0.10147499999999998,0.808317,0.14539999999999997,0.8525039999999999Q0.189326,0.896691,0.24275200000000002,0.9287460000000001L0.242819,0.928787L5.24275,3.92875Q5.30103,3.96372,5.36653,3.98186Q5.43203,4,5.5,4Q5.56797,4,5.63347,3.98186Q5.69897,3.96372,5.75725,3.92875Z"
              fill-rule="evenodd" fill="#FFFFFF" fill-opacity="1"/>
    </g>
</svg>