<svg xmlns="http://www.w3.org/2000/svg" xmlns:xlink="http://www.w3.org/1999/xlink" fill="none" version="1.1" width="16"
     height="16" viewBox="0 0 16 16">
    <defs>
        <clipPath id="master_svg0_0_1792">
            <rect x="0" y="0" width="16" height="16" rx="0"/>
        </clipPath>
    </defs>
    <g clip-path="url(#master_svg0_0_1792)">
        <g>
            <path d="M4.666663373069763,3.3333366865348815C4.666663373069763,3.3333366865348815,4.666663373069763,1.3333336865348815,4.666663373069763,1.3333336865348815C4.666663373069763,0.9651466865348817,4.965143373069763,0.6666666865348816,5.333333373069763,0.6666666865348816C5.333333373069763,0.6666666865348816,10.666663373069763,0.6666666865348816,10.666663373069763,0.6666666865348816C11.034863373069763,0.6666666865348816,11.333333373069763,0.9651466865348817,11.333333373069763,1.3333336865348815C11.333333373069763,1.3333336865348815,11.333333373069763,3.3333366865348815,11.333333373069763,3.3333366865348815C11.333333373069763,3.3333366865348815,14.000033373069764,3.3333366865348815,14.000033373069764,3.3333366865348815C14.368233373069764,3.3333366865348815,14.666633373069763,3.6318166865348815,14.666633373069763,3.9999966865348817C14.666633373069763,3.9999966865348817,14.666633373069763,13.333366686534882,14.666633373069763,13.333366686534882C14.666633373069763,13.701566686534882,14.368233373069764,13.999966686534881,14.000033373069764,13.999966686534881C14.000033373069764,13.999966686534881,2.000000373069763,13.999966686534881,2.000000373069763,13.999966686534881C1.6318133730697633,13.999966686534881,1.3333333730697632,13.701566686534882,1.3333333730697632,13.333366686534882C1.3333333730697632,13.333366686534882,1.3333333730697632,3.9999966865348817,1.3333333730697632,3.9999966865348817C1.3333333730697632,3.6318166865348815,1.6318133730697633,3.3333366865348815,2.000000373069763,3.3333366865348815C2.000000373069763,3.3333366865348815,4.666663373069763,3.3333366865348815,4.666663373069763,3.3333366865348815ZM2.6666633730697633,9.999996686534882C2.6666633730697633,9.999996686534882,2.6666633730697633,12.666666686534882,2.6666633730697633,12.666666686534882C2.6666633730697633,12.666666686534882,13.333333373069763,12.666666686534882,13.333333373069763,12.666666686534882C13.333333373069763,12.666666686534882,13.333333373069763,9.999996686534882,13.333333373069763,9.999996686534882C13.333333373069763,9.999996686534882,2.6666633730697633,9.999996686534882,2.6666633730697633,9.999996686534882ZM7.333333373069763,7.3333366865348815C7.333333373069763,7.3333366865348815,7.333333373069763,8.666666686534882,7.333333373069763,8.666666686534882C7.333333373069763,8.666666686534882,8.666663373069763,8.666666686534882,8.666663373069763,8.666666686534882C8.666663373069763,8.666666686534882,8.666663373069763,7.3333366865348815,8.666663373069763,7.3333366865348815C8.666663373069763,7.3333366865348815,7.333333373069763,7.3333366865348815,7.333333373069763,7.3333366865348815ZM6.000003373069763,1.9999966865348815C6.000003373069763,1.9999966865348815,6.000003373069763,3.3333366865348815,6.000003373069763,3.3333366865348815C6.000003373069763,3.3333366865348815,10.000003373069763,3.3333366865348815,10.000003373069763,3.3333366865348815C10.000003373069763,3.3333366865348815,10.000003373069763,1.9999966865348815,10.000003373069763,1.9999966865348815C10.000003373069763,1.9999966865348815,6.000003373069763,1.9999966865348815,6.000003373069763,1.9999966865348815Z"
                  fill="#53B99D" fill-opacity="1"/>
        </g>
    </g>
</svg>