<svg xmlns="http://www.w3.org/2000/svg" xmlns:xlink="http://www.w3.org/1999/xlink" fill="none" version="1.1" width="34"
     height="34" viewBox="0 0 34 34">
    <defs>
        <clipPath id="master_svg0_0_1743">
            <rect x="0" y="0" width="34" height="34" rx="0"/>
        </clipPath>
    </defs>
    <g clip-path="url(#master_svg0_0_1743)">
        <g>
            <path d="M30.953372150230408,8.71774175491333C30.953372150230408,8.71774175491333,30.318172150230406,8.71774175491333,30.318172150230406,8.71774175491333C30.318172150230406,8.71774175491333,30.318172150230406,5.5413317549133305,30.318172150230406,5.5413317549133305C30.318172150230406,4.49311175491333,29.551072150230407,3.25178175491333,28.613672150230407,2.78325175491333C28.613672150230407,2.78325175491333,25.235872150230406,1.09434175491333,16.97717215023041,1.09434175491333C8.718382150230408,1.09434175491333,5.340952150230407,2.78325175491333,5.340952150230407,2.78325175491333C4.403302150230408,3.25178175491333,3.636172150230408,4.49311175491333,3.636172150230408,5.5413317549133305C3.636172150230408,5.5413317549133305,3.636172150230408,8.71774175491333,3.636172150230408,8.71774175491333C3.636172150230408,8.71774175491333,3.0009021502304076,8.71774175491333,3.0009021502304076,8.71774175491333C1.9526751502304078,8.71774175491333,1.0950721502304077,9.57535175491333,1.0950721502304077,10.62357175491333C1.0950721502304077,10.62357175491333,1.0950721502304077,12.52944175491333,1.0950721502304077,12.52944175491333C1.0950721502304077,13.57764175491333,1.9526751502304078,14.43524175491333,3.0009021502304076,14.43524175491333C3.0009021502304076,14.43524175491333,3.636172150230408,14.43524175491333,3.636172150230408,14.43524175491333C3.636172150230408,14.43524175491333,3.636172150230408,27.45854175491333,3.636172150230408,27.45854175491333C3.636172150230408,28.284141754913332,4.168852150230408,28.98894175491333,4.906762150230408,29.25224175491333C4.906762150230408,29.25224175491333,4.906762150230408,30.31734175491333,4.906762150230408,30.31734175491333C4.906762150230408,31.71504175491333,6.050242150230408,32.85844175491333,7.447892150230408,32.85844175491333C8.845542150230408,32.85844175491333,9.989032150230408,31.71494175491333,9.989032150230408,30.31734175491333C9.989032150230408,30.31734175491333,9.989032150230408,29.36444175491333,9.989032150230408,29.36444175491333C9.989032150230408,29.36444175491333,23.96527215023041,29.36444175491333,23.96527215023041,29.36444175491333C23.96527215023041,29.36444175491333,23.96527215023041,30.31734175491333,23.96527215023041,30.31734175491333C23.96527215023041,31.71504175491333,25.108772150230408,32.85844175491333,26.506472150230408,32.85844175491333C27.90407215023041,32.85844175491333,29.04757215023041,31.71494175491333,29.04757215023041,30.31734175491333C29.04757215023041,30.31734175491333,29.04757215023041,29.25224175491333,29.04757215023041,29.25224175491333C29.785472150230408,28.98894175491333,30.318172150230406,28.28374175491333,30.318172150230406,27.45854175491333C30.318172150230406,27.45854175491333,30.318172150230406,14.43524175491333,30.318172150230406,14.43524175491333C30.318172150230406,14.43524175491333,30.953472150230407,14.43524175491333,30.953472150230407,14.43524175491333C32.001672150230405,14.43524175491333,32.85927215023041,13.57764175491333,32.85927215023041,12.52944175491333C32.85927215023041,12.52944175491333,32.85927215023041,10.62357175491333,32.85927215023041,10.62357175491333C32.85927215023041,9.57538175491333,32.001672150230405,8.71774175491333,30.953372150230408,8.71774175491333ZM10.624272150230407,4.270751754913331C10.624272150230407,3.92135175491333,10.910152150230408,3.63547175491333,11.259572150230408,3.63547175491333C11.259572150230408,3.63547175491333,22.694672150230407,3.63547175491333,22.694672150230407,3.63547175491333C23.04407215023041,3.63547175491333,23.329972150230407,3.92135175491333,23.329972150230407,4.270751754913331C23.329972150230407,4.270751754913331,23.329972150230407,5.5413317549133305,23.329972150230407,5.5413317549133305C23.329972150230407,5.89073175491333,23.04407215023041,6.17661175491333,22.694672150230407,6.17661175491333C22.694672150230407,6.17661175491333,11.259572150230408,6.17661175491333,11.259572150230408,6.17661175491333C10.910152150230408,6.17661175491333,10.624272150230407,5.89073175491333,10.624272150230407,5.5413317549133305C10.624272150230407,5.5413317549133305,10.624272150230407,4.270751754913331,10.624272150230407,4.270751754913331ZM7.765482150230408,26.82334175491333C6.8881521502304075,26.82334175491333,6.177272150230408,26.11184175491333,6.177272150230408,25.23514175491333C6.177272150230408,24.35844175491333,6.8881521502304075,23.646941754913332,7.765482150230408,23.646941754913332C8.642512150230408,23.646941754913332,9.353682150230407,24.35844175491333,9.353682150230407,25.23514175491333C9.353682150230407,26.11184175491333,8.642512150230408,26.82334175491333,7.765482150230408,26.82334175491333ZM26.188772150230406,26.82334175491333C25.311472150230408,26.82334175491333,24.60057215023041,26.11184175491333,24.60057215023041,25.23514175491333C24.60057215023041,24.35844175491333,25.311472150230408,23.646941754913332,26.188772150230406,23.646941754913332C27.066172150230408,23.646941754913332,27.776972150230407,24.35844175491333,27.776972150230407,25.23514175491333C27.776972150230407,26.11184175491333,27.066072150230408,26.82334175491333,26.188772150230406,26.82334175491333ZM27.776972150230407,19.51764175491333C27.776972150230407,19.86704175491333,27.49107215023041,20.15294175491333,27.14167215023041,20.15294175491333C27.14167215023041,20.15294175491333,6.812582150230408,20.15294175491333,6.812582150230408,20.15294175491333C6.463192150230408,20.15294175491333,6.177312150230407,19.86704175491333,6.177312150230407,19.51764175491333C6.177312150230407,19.51764175491333,6.177312150230407,9.35305175491333,6.177312150230407,9.35305175491333C6.177312150230407,9.003661754913331,6.463192150230408,8.71778175491333,6.812582150230408,8.71778175491333C6.812582150230408,8.71778175491333,27.14167215023041,8.71778175491333,27.14167215023041,8.71778175491333C27.49107215023041,8.71778175491333,27.776972150230407,9.003661754913331,27.776972150230407,9.35305175491333C27.776972150230407,9.35305175491333,27.776972150230407,19.51764175491333,27.776972150230407,19.51764175491333Z"
                  fill="#3AC0AA" fill-opacity="1"/>
        </g>
    </g>
</svg>