<svg xmlns="http://www.w3.org/2000/svg" xmlns:xlink="http://www.w3.org/1999/xlink" fill="none" version="1.1" width="18"
     height="18" viewBox="0 0 18 18">
    <defs>
        <clipPath id="master_svg0_0_3638">
            <rect x="0" y="0" width="18" height="18" rx="0"/>
        </clipPath>
    </defs>
    <g clip-path="url(#master_svg0_0_3638)">
        <g>
            <path d="M2.104330812549591,3.9002306559753417C2.104330812549591,3.9002306559753417,5.253790812549591,5.999870655975342,5.253790812549591,5.999870655975342C5.253790812549591,5.999870655975342,8.393470812549591,1.6042876559753418,8.393470812549591,1.6042876559753418C8.634220812549591,1.2672299559753417,9.102670812549592,1.1891626559753419,9.439720812549591,1.4299196559753418C9.50707081254959,1.4780246559753418,9.565950812549591,1.5369446559753417,9.61410081254959,1.6042876559753418C9.61410081254959,1.6042876559753418,12.753830812549591,5.999870655975342,12.753830812549591,5.999870655975342C12.753830812549591,5.999870655975342,15.903230812549591,3.9002306559753417,15.903230812549591,3.9002306559753417C16.24793081254959,3.670460655975342,16.713530812549592,3.763600655975342,16.94333081254959,4.108240655975342C17.04213081254959,4.256450655975342,17.08493081254959,4.434990655975342,17.064130812549593,4.611900655975342C17.064130812549593,4.611900655975342,15.83173081254959,15.087560655975341,15.83173081254959,15.087560655975341C15.787230812549591,15.465260655975342,15.467130812549591,15.749860655975342,15.086830812549591,15.749860655975342C15.086830812549591,15.749860655975342,2.9207208125495914,15.749860655975342,2.9207208125495914,15.749860655975342C2.540410812549591,15.749860655975342,2.220300812549591,15.465260655975342,2.1758608125495913,15.087560655975341C2.1758608125495913,15.087560655975341,0.943440042549591,4.611900655975342,0.943440042549591,4.611900655975342C0.8950425125495911,4.200520655975342,1.189297812549591,3.827800655975342,1.600672812549591,3.779410655975342C1.777582812549591,3.758590655975342,1.956120812549591,3.801420655975342,2.104330812549591,3.9002306559753417ZM9.003820812549591,11.249850655975342C9.83220081254959,11.249850655975342,10.503820812549591,10.578300655975342,10.503820812549591,9.749850655975342C10.503820812549591,8.921470655975341,9.83220081254959,8.249850655975342,9.003820812549591,8.249850655975342C8.175370812549591,8.249850655975342,7.503820812549591,8.921470655975341,7.503820812549591,9.749850655975342C7.503820812549591,10.578300655975342,8.175370812549591,11.249850655975342,9.003820812549591,11.249850655975342Z"
                  fill="#FDBC7D" fill-opacity="1"/>
        </g>
    </g>
</svg>