<svg xmlns="http://www.w3.org/2000/svg" xmlns:xlink="http://www.w3.org/1999/xlink" fill="none" version="1.1" width="20"
     height="20" viewBox="0 0 20 20">
    <defs>
        <clipPath id="master_svg0_0_3599">
            <rect x="0" y="0" width="20" height="20" rx="0"/>
        </clipPath>
    </defs>
    <g clip-path="url(#master_svg0_0_3599)">
        <g>
            <path d="M16.61513331346512,6.6666633134651185C16.61513331346512,6.6666633134651185,17.500033313465117,6.6666633134651185,17.500033313465117,6.6666633134651185C18.420533313465118,6.6666633134651185,19.16663331346512,7.412853313465118,19.16663331346512,8.333333313465118C19.16663331346512,8.333333313465118,19.16663331346512,11.666633313465118,19.16663331346512,11.666633313465118C19.16663331346512,12.587133313465118,18.420533313465118,13.333333313465118,17.500033313465117,13.333333313465118C17.500033313465117,13.333333313465118,16.61513331346512,13.333333313465118,16.61513331346512,13.333333313465118C16.20503331346512,16.62193331346512,13.399633313465118,19.16663331346512,10.000003313465118,19.16663331346512C10.000003313465118,19.16663331346512,10.000003313465118,17.500033313465117,10.000003313465118,17.500033313465117C12.761433313465119,17.500033313465117,15.000033313465119,15.261433313465119,15.000033313465119,12.500033313465119C15.000033313465119,12.500033313465119,15.000033313465119,7.500003313465118,15.000033313465119,7.500003313465118C15.000033313465119,4.7385733134651185,12.761433313465119,2.5000033134651183,10.000003313465118,2.5000033134651183C7.2385733134651185,2.5000033134651183,5.000003313465118,4.7385733134651185,5.000003313465118,7.500003313465118C5.000003313465118,7.500003313465118,5.000003313465118,13.333333313465118,5.000003313465118,13.333333313465118C5.000003313465118,13.333333313465118,2.5000033134651183,13.333333313465118,2.5000033134651183,13.333333313465118C1.5795253134651184,13.333333313465118,0.8333333134651184,12.587133313465118,0.8333333134651184,11.666633313465118C0.8333333134651184,11.666633313465118,0.8333333134651184,8.333333313465118,0.8333333134651184,8.333333313465118C0.8333333134651184,7.412853313465118,1.5795253134651184,6.6666633134651185,2.5000033134651183,6.6666633134651185C2.5000033134651183,6.6666633134651185,3.3849133134651184,6.6666633134651185,3.3849133134651184,6.6666633134651185C3.7949933134651186,3.3780733134651184,6.600313313465119,0.8333333134651184,10.000003313465118,0.8333333134651184C13.399633313465118,0.8333333134651184,16.20503331346512,3.3780733134651184,16.61513331346512,6.6666633134651185ZM2.5000033134651183,8.333333313465118C2.5000033134651183,8.333333313465118,2.5000033134651183,11.666633313465118,2.5000033134651183,11.666633313465118C2.5000033134651183,11.666633313465118,3.3333333134651184,11.666633313465118,3.3333333134651184,11.666633313465118C3.3333333134651184,11.666633313465118,3.3333333134651184,8.333333313465118,3.3333333134651184,8.333333313465118C3.3333333134651184,8.333333313465118,2.5000033134651183,8.333333313465118,2.5000033134651183,8.333333313465118ZM16.66663331346512,8.333333313465118C16.66663331346512,8.333333313465118,16.66663331346512,11.666633313465118,16.66663331346512,11.666633313465118C16.66663331346512,11.666633313465118,17.500033313465117,11.666633313465118,17.500033313465117,11.666633313465118C17.500033313465117,11.666633313465118,17.500033313465117,8.333333313465118,17.500033313465117,8.333333313465118C17.500033313465117,8.333333313465118,16.66663331346512,8.333333313465118,16.66663331346512,8.333333313465118ZM6.466203313465118,13.154133313465119C6.466203313465118,13.154133313465119,7.349653313465119,11.740633313465118,7.349653313465119,11.740633313465118C8.118013313465118,12.221833313465119,9.026503313465119,12.500033313465119,10.000003313465118,12.500033313465119C10.973533313465119,12.500033313465119,11.882033313465119,12.221833313465119,12.650333313465119,11.740633313465118C12.650333313465119,11.740633313465118,13.533833313465118,13.154133313465119,13.533833313465118,13.154133313465119C12.509333313465119,13.795733313465119,11.298033313465119,14.166633313465118,10.000003313465118,14.166633313465118C8.702003313465118,14.166633313465118,7.4906833134651185,13.795733313465119,6.466203313465118,13.154133313465119Z"
                  fill="#FFFFFF" fill-opacity="1"/>
        </g>
    </g>
</svg>