<svg xmlns="http://www.w3.org/2000/svg" xmlns:xlink="http://www.w3.org/1999/xlink" fill="none" version="1.1" width="20"
     height="20" viewBox="0 0 20 20">
    <defs>
        <clipPath id="master_svg0_0_1798">
            <rect x="0" y="0" width="20" height="20" rx="0"/>
        </clipPath>
    </defs>
    <g clip-path="url(#master_svg0_0_1798)">
        <g>
            <path d="M3.3333333134651184,12.5C3.3333333134651184,12.5,3.3333333134651184,7.08333,3.3333333134651184,7.08333C3.3333333134651184,5.01227,5.012263313465119,3.333333,7.083333313465118,3.333333C9.154413313465119,3.333333,10.833333313465118,5.01227,10.833333313465118,7.08333C10.833333313465118,7.08333,10.833333313465118,12.9167,10.833333313465118,12.9167C10.833333313465118,14.0673,11.766033313465119,15,12.916633313465118,15C14.067233313465119,15,15.000033313465119,14.0673,15.000033313465119,12.9167C15.000033313465119,12.9167,15.000033313465119,7.35774,15.000033313465119,7.35774C14.029033313465119,7.01455,13.333333313465118,6.08852,13.333333313465118,5C13.333333313465118,3.61929,14.45263331346512,2.5,15.833333313465118,2.5C17.21413331346512,2.5,18.33333331346512,3.61929,18.33333331346512,5C18.33333331346512,6.08852,17.63763331346512,7.01455,16.66663331346512,7.35774C16.66663331346512,7.35774,16.66663331346512,12.9167,16.66663331346512,12.9167C16.66663331346512,14.9878,14.98773331346512,16.6667,12.916633313465118,16.6667C10.845533313465118,16.6667,9.166663313465119,14.9878,9.166663313465119,12.9167C9.166663313465119,12.9167,9.166663313465119,7.08333,9.166663313465119,7.08333C9.166663313465119,5.93274,8.23392331346512,5,7.083333313465118,5C5.932743313465118,5,5.000003313465118,5.93274,5.000003313465118,7.08333C5.000003313465118,7.08333,5.000003313465118,12.5,5.000003313465118,12.5C5.000003313465118,12.5,7.500003313465118,12.5,7.500003313465118,12.5C7.500003313465118,12.5,4.1666633134651185,16.6667,4.1666633134651185,16.6667C4.1666633134651185,16.6667,0.8333333134651184,12.5,0.8333333134651184,12.5C0.8333333134651184,12.5,3.3333333134651184,12.5,3.3333333134651184,12.5ZM15.833333313465118,5.83333C16.29353331346512,5.83333,16.66663331346512,5.46023,16.66663331346512,5C16.66663331346512,4.53977,16.29353331346512,4.16667,15.833333313465118,4.16667C15.373133313465118,4.16667,15.000033313465119,4.53977,15.000033313465119,5C15.000033313465119,5.46023,15.373133313465118,5.83333,15.833333313465118,5.83333Z"
                  fill="#000000" fill-opacity="1"/>
        </g>
    </g>
</svg>