<svg xmlns="http://www.w3.org/2000/svg" xmlns:xlink="http://www.w3.org/1999/xlink" fill="none" version="1.1" width="16"
     height="16" viewBox="0 0 16 16">
    <defs>
        <clipPath id="master_svg0_0_460">
            <rect x="0" y="0" width="16" height="16" rx="0"/>
        </clipPath>
    </defs>
    <g clip-path="url(#master_svg0_0_460)">
        <g>
            <path d="M12.242700238418578,11.576033492279052C12.242700238418578,11.576033492279052,8.000000238418579,15.818633492279053,8.000000238418579,15.818633492279053C8.000000238418579,15.818633492279053,3.7573602384185794,11.576033492279052,3.7573602384185794,11.576033492279052C1.4142132384185793,9.232803492279054,1.4142132384185793,5.433843492279053,3.7573602384185794,3.090693492279053C6.100510238418579,0.7475464922790528,9.89947023841858,0.7475464922790528,12.242700238418578,3.090693492279053C14.58580023841858,5.433843492279053,14.58580023841858,9.232803492279054,12.242700238418578,11.576033492279052ZM8.000000238418579,8.666663492279053C8.736400238418579,8.666663492279053,9.33333023841858,8.069733492279052,9.33333023841858,7.333333492279053C9.33333023841858,6.596953492279053,8.736400238418579,6.000003492279053,8.000000238418579,6.000003492279053C7.263600238418579,6.000003492279053,6.666670238418579,6.596953492279053,6.666670238418579,7.333333492279053C6.666670238418579,8.069733492279052,7.263600238418579,8.666663492279053,8.000000238418579,8.666663492279053Z"
                  fill="#FFFFFF" fill-opacity="1"/>
        </g>
    </g>
</svg>