<svg xmlns="http://www.w3.org/2000/svg" xmlns:xlink="http://www.w3.org/1999/xlink" fill="none" version="1.1" width="34"
     height="34" viewBox="0 0 34 34">
    <defs>
        <clipPath id="master_svg0_0_1753">
            <rect x="0" y="0" width="34" height="34" rx="0"/>
        </clipPath>
    </defs>
    <g clip-path="url(#master_svg0_0_1753)">
        <g>
            <path d="M3.6955083421325683,6.989259030609131C3.6955083421325683,6.989259030609131,9.602343342132569,3.4066400306091307,9.602343342132569,3.4066400306091307C10.06718334213257,3.124414030609131,10.671483342132568,3.270507760609131,10.953713342132568,3.735351030609131C11.046683342132567,3.8914060306091307,11.096483342132569,4.067383030609131,11.096483342132569,4.250000030609131C11.096483342132569,4.250000030609131,11.096483342132569,26.01797903060913,11.096483342132569,26.01797903060913C11.096483342132569,26.36327903060913,10.917183342132567,26.68537903060913,10.618363342132568,26.864679030609132C10.618363342132568,26.864679030609132,4.714843342132569,30.39417903060913,4.714843342132569,30.39417903060913C4.250003342132568,30.67307903060913,3.645703342132568,30.52367903060913,3.3634763421325684,30.05547903060913C3.2705078421325684,29.902779030609132,3.2240233421325684,29.72677903060913,3.2240233421325684,29.547479030609132C3.2240233421325684,29.547479030609132,3.2240233421325684,7.832619030609131,3.2240233421325684,7.832619030609131C3.2240233421325684,7.487309030609131,3.4033203421325684,7.168559030609131,3.6955083421325683,6.989259030609131ZM23.381623342132567,6.989259030609131C23.381623342132567,6.989259030609131,29.285123342132568,3.4066400306091307,29.285123342132568,3.4066400306091307C29.750023342132568,3.124414030609131,30.354323342132567,3.270507760609131,30.63652334213257,3.735351030609131C30.72952334213257,3.8914060306091307,30.779323342132567,4.067383030609131,30.779323342132567,4.250000030609131C30.779323342132567,4.250000030609131,30.779323342132567,26.01797903060913,30.779323342132567,26.01797903060913C30.779323342132567,26.36327903060913,30.60002334213257,26.68537903060913,30.30112334213257,26.864679030609132C30.30112334213257,26.864679030609132,24.39762334213257,30.39417903060913,24.39762334213257,30.39417903060913C23.93282334213257,30.67307903060913,23.32852334213257,30.52367903060913,23.046323342132567,30.05547903060913C22.953323342132567,29.902779030609132,22.90682334213257,29.72677903060913,22.90682334213257,29.547479030609132C22.90682334213257,29.547479030609132,22.90682334213257,7.832619030609131,22.90682334213257,7.832619030609131C22.910123342132568,7.487309030609131,23.08612334213257,7.168559030609131,23.381623342132567,6.989259030609131ZM14.559523342132568,4.522269030609131C14.559523342132568,4.522269030609131,20.46642334213257,8.05839903060913,20.46642334213257,8.05839903060913C20.76192334213257,8.23769903060913,20.94452334213257,8.55644903060913,20.94452334213257,8.901759030609131C20.94452334213257,8.901759030609131,20.94452334213257,29.826379030609132,20.94452334213257,29.826379030609132C20.94452334213257,30.37087903060913,20.50292334213257,30.80917903060913,19.95842334213257,30.80917903060913C19.779123342132568,30.80917903060913,19.60312334213257,30.759379030609132,19.45042334213257,30.666379030609132C19.45042334213257,30.666379030609132,13.543523342132568,27.10037903060913,13.543523342132568,27.10037903060913C13.248023342132567,26.92437903060913,13.065433342132568,26.602379030609132,13.065433342132568,26.25707903060913C13.065433342132568,26.25707903060913,13.065433342132568,5.365629030609131,13.065433342132568,5.365629030609131C13.065433342132568,4.821099030609131,13.507023342132568,4.382809030609131,14.048223342132568,4.382809030609131C14.227523342132569,4.382809030609131,14.40352334213257,4.429299030609131,14.559523342132568,4.522269030609131Z"
                  fill="#FAAA98" fill-opacity="1"/>
        </g>
    </g>
</svg>