<svg width="16" height="16" viewBox="0 0 16 16" fill="none" xmlns="http://www.w3.org/2000/svg">
    <g id="Frame">
        <path id="Vector"
              d="M8.00016 2C11.5949 2 14.5856 4.58651 15.2126 8C14.5856 11.4135 11.5949 14 8.00016 14C4.40537 14 1.41473 11.4135 0.78772 8C1.41473 4.58651 4.40537 2 8.00016 2ZM8.00016 12.6667C10.8239 12.6667 13.2402 10.7013 13.8518 8C13.2402 5.29869 10.8239 3.33333 8.00016 3.33333C5.17636 3.33333 2.76011 5.29869 2.14848 8C2.76011 10.7013 5.17636 12.6667 8.00016 12.6667ZM8.00016 11C6.34328 11 5.00013 9.65687 5.00013 8C5.00013 6.34315 6.34328 5 8.00016 5C9.65696 5 11.0002 6.34315 11.0002 8C11.0002 9.65687 9.65696 11 8.00016 11ZM8.00016 9.66667C8.92063 9.66667 9.66683 8.92047 9.66683 8C9.66683 7.07953 8.92063 6.33333 8.00016 6.33333C7.07969 6.33333 6.33347 7.07953 6.33347 8C6.33347 8.92047 7.07969 9.66667 8.00016 9.66667Z"
              fill="black"/>
    </g>
</svg>
