<svg width="16" height="16" viewBox="0 0 16 16" fill="none" xmlns="http://www.w3.org/2000/svg">
    <g id="Frame">
        <path id="Vector"
              d="M9.33329 9.50134V10.8943C8.91623 10.7469 8.46749 10.6667 7.99996 10.6667C5.79082 10.6667 3.99996 12.4575 3.99996 14.6667H2.66663C2.66663 11.7211 5.05444 9.33334 7.99996 9.33334C8.46036 9.33334 8.90716 9.39167 9.33329 9.50134ZM7.99996 8.66667C5.78996 8.66667 3.99996 6.87667 3.99996 4.66667C3.99996 2.45667 5.78996 0.666672 7.99996 0.666672C10.21 0.666672 12 2.45667 12 4.66667C12 6.87667 10.21 8.66667 7.99996 8.66667ZM7.99996 7.33334C9.47329 7.33334 10.6666 6.14001 10.6666 4.66667C10.6666 3.19334 9.47329 2.00001 7.99996 2.00001C6.52663 2.00001 5.33329 3.19334 5.33329 4.66667C5.33329 6.14001 6.52663 7.33334 7.99996 7.33334ZM12 11.3333V9.33334H13.3333V11.3333H15.3333V12.6667H13.3333V14.6667H12V12.6667H9.99996V11.3333H12Z"
              fill="black"/>
    </g>
</svg>
