<svg width="16" height="16" viewBox="0 0 16 16" fill="none" xmlns="http://www.w3.org/2000/svg">
    <g id="Frame">
        <path id="Vector"
              d="M3.66663 8.00013H2.66663V4.66683H1.33329V3.3335H5.33329V4.66683H3.99996V6.53048L10.542 4.77755L10.1551 3.3335H7.99996V2.00017H10.6522C10.9524 1.99345 11.2294 2.19145 11.3106 2.49429L12.3458 6.35799L11.058 6.70307L10.8871 6.06545L3.66663 8.00013ZM3.33329 12.6668C4.06967 12.6668 4.66663 12.0699 4.66663 11.3335C4.66663 10.5971 4.06967 10.0001 3.33329 10.0001C2.59691 10.0001 1.99996 10.5971 1.99996 11.3335C1.99996 12.0699 2.59691 12.6668 3.33329 12.6668ZM3.33329 14.0001C1.86053 14.0001 0.666626 12.8063 0.666626 11.3335C0.666626 9.86073 1.86053 8.6668 3.33329 8.6668C4.80605 8.6668 5.99996 9.86073 5.99996 11.3335C5.99996 12.8063 4.80605 14.0001 3.33329 14.0001ZM12 12.6668C13.1046 12.6668 14 11.7714 14 10.6668C14 9.56227 13.1046 8.6668 12 8.6668C10.8954 8.6668 9.99996 9.56227 9.99996 10.6668C9.99996 11.7714 10.8954 12.6668 12 12.6668ZM12 14.0001C10.159 14.0001 8.66663 12.5078 8.66663 10.6668C8.66663 8.82587 10.159 7.33347 12 7.33347C13.8409 7.33347 15.3333 8.82587 15.3333 10.6668C15.3333 12.5078 13.8409 14.0001 12 14.0001Z"
              fill="black"/>
    </g>
</svg>
