<svg width="16" height="16" viewBox="0 0 16 16" fill="none" xmlns="http://www.w3.org/2000/svg">
    <g id="Frame">
        <path id="Vector"
              d="M13.4951 3.17157C15.0036 4.68315 15.0554 7.09133 13.6524 8.662L7.99997 14.3233L2.34763 8.662C0.944739 7.09133 0.99718 4.67934 2.50495 3.17157C4.01442 1.6621 6.43017 1.61125 8.00071 3.01902C9.56671 1.61333 11.9867 1.66 13.4951 3.17157ZM3.44775 4.11438C2.45459 5.10754 2.40473 6.6982 3.31999 7.7488L7.99997 12.4362L12.6801 7.7488C13.5957 6.6978 13.546 5.11017 12.5514 4.1134C11.5598 3.11986 9.96391 3.07204 8.91624 3.98917L6.11442 6.79127L5.17161 5.84843L7.05471 3.964L7.00017 3.91801C5.95034 3.07465 4.41552 3.14662 3.44775 4.11438Z"
              fill="black"/>
    </g>
</svg>
