<svg width="24" height="24" viewBox="0 0 24 24" fill="none" xmlns="http://www.w3.org/2000/svg">
    <g id="Frame">
        <path id="Vector"
              d="M19 22H5C3.34315 22 2 20.6569 2 19V3C2 2.44772 2.44772 2 3 2H17C17.5523 2 18 2.44772 18 3V15H22V19C22 20.6569 20.6569 22 19 22ZM18 17V19C18 19.5523 18.4477 20 19 20C19.5523 20 20 19.5523 20 19V17H18ZM16 20V4H4V19C4 19.5523 4.44772 20 5 20H16Z"
              fill="black"/>
        <g id="Vector_2">
            <path d="M14 7H6V9H14V7Z" fill="#3BCDA1"/>
            <path d="M14 11H6V13H14V11Z" fill="#3BCDA1"/>
            <path d="M11 15H6V17H11V15Z" fill="#3BCDA1"/>
        </g>
    </g>
</svg>
