<svg xmlns="http://www.w3.org/2000/svg" xmlns:xlink="http://www.w3.org/1999/xlink" fill="none" version="1.1" width="18"
     height="18" viewBox="0 0 18 18">
    <defs>
        <clipPath id="master_svg0_0_325">
            <rect x="0" y="0" width="18" height="18" rx="0"/>
        </clipPath>
    </defs>
    <g clip-path="url(#master_svg0_0_325)">
        <g>
            <path d="M9.75,14.9536C12.464,14.6152,14.6152,12.464,14.9536,9.75C14.9536,9.75,12.75,9.75,12.75,9.75C12.75,9.75,12.75,8.25,12.75,8.25C12.75,8.25,14.9536,8.25,14.9536,8.25C14.6152,5.53596,12.464,3.3848599999999998,9.75,3.04642C9.75,3.04642,9.75,5.25,9.75,5.25C9.75,5.25,8.25,5.25,8.25,5.25C8.25,5.25,8.25,3.04642,8.25,3.04642C5.53596,3.3848599999999998,3.3848599999999998,5.53596,3.04642,8.25C3.04642,8.25,5.25,8.25,5.25,8.25C5.25,8.25,5.25,9.75,5.25,9.75C5.25,9.75,3.04642,9.75,3.04642,9.75C3.3848599999999998,12.464,5.53596,14.6152,8.25,14.9536C8.25,14.9536,8.25,12.75,8.25,12.75C8.25,12.75,9.75,12.75,9.75,12.75C9.75,12.75,9.75,14.9536,9.75,14.9536ZM9,16.5C4.8578600000000005,16.5,1.5,13.1421,1.5,9C1.5,4.8578600000000005,4.8578600000000005,1.5,9,1.5C13.1421,1.5,16.5,4.8578600000000005,16.5,9C16.5,13.1421,13.1421,16.5,9,16.5ZM9,10.5C8.17155,10.5,7.5,9.82845,7.5,9C7.5,8.17155,8.17155,7.5,9,7.5C9.82845,7.5,10.5,8.17155,10.5,9C10.5,9.82845,9.82845,10.5,9,10.5Z"
                  fill="#7F7F7F" fill-opacity="1"/>
        </g>
    </g>
</svg>