<svg xmlns="http://www.w3.org/2000/svg" xmlns:xlink="http://www.w3.org/1999/xlink" fill="none" version="1.1" width="18"
     height="18" viewBox="0 0 18 18">
    <defs>
        <clipPath id="master_svg0_0_330">
            <rect x="0" y="0" width="18" height="18" rx="0"/>
        </clipPath>
    </defs>
    <g clip-path="url(#master_svg0_0_330)">
        <g>
            <path d="M13.5233,12.4626C13.5233,12.4626,16.735300000000002,15.6746,16.735300000000002,15.6746C16.735300000000002,15.6746,15.6746,16.735300000000002,15.6746,16.735300000000002C15.6746,16.735300000000002,12.4626,13.5233,12.4626,13.5233C11.30768,14.4473,9.843,15,8.25,15C4.524,15,1.5,11.976,1.5,8.25C1.5,4.524,4.524,1.5,8.25,1.5C11.976,1.5,15,4.524,15,8.25C15,9.843,14.4473,11.30768,13.5233,12.4626ZM12.0185,11.9061C12.9356,10.96095,13.5,9.6717,13.5,8.25C13.5,5.34938,11.15063,3,8.25,3C5.34938,3,3,5.34938,3,8.25C3,11.15063,5.34938,13.5,8.25,13.5C9.6717,13.5,10.96095,12.9356,11.9061,12.0185C11.9061,12.0185,12.0185,11.9061,12.0185,11.9061Z"
                  fill="#7F7F7F" fill-opacity="1"/>
        </g>
    </g>
</svg>