<svg xmlns="http://www.w3.org/2000/svg" xmlns:xlink="http://www.w3.org/1999/xlink" fill="none" version="1.1" width="20"
     height="20" viewBox="0 0 20 20">
    <defs>
        <clipPath id="master_svg0_0_3080">
            <rect x="0" y="0" width="20" height="20" rx="0"/>
        </clipPath>
    </defs>
    <g clip-path="url(#master_svg0_0_3080)">
        <g>
            <path d="M10.000003253860474,0.8333333134651184C10.000003253860474,0.8333333134651184,17.916633253860475,5.4166633134651185,17.916633253860475,5.4166633134651185C17.916633253860475,5.4166633134651185,17.916633253860475,14.583333313465118,17.916633253860475,14.583333313465118C17.916633253860475,14.583333313465118,10.000003253860474,19.16663331346512,10.000003253860474,19.16663331346512C10.000003253860474,19.16663331346512,2.0833332538604736,14.583333313465118,2.0833332538604736,14.583333313465118C2.0833332538604736,14.583333313465118,2.0833332538604736,5.4166633134651185,2.0833332538604736,5.4166633134651185C2.0833332538604736,5.4166633134651185,10.000003253860474,0.8333333134651184,10.000003253860474,0.8333333134651184ZM10.000003253860474,2.7591633134651183C10.000003253860474,2.7591633134651183,3.7500032538604735,6.377593313465119,3.7500032538604735,6.377593313465119C3.7500032538604735,6.377593313465119,3.7500032538604735,13.622433313465118,3.7500032538604735,13.622433313465118C3.7500032538604735,13.622433313465118,10.000003253860474,17.240833313465117,10.000003253860474,17.240833313465117C10.000003253860474,17.240833313465117,16.250033253860472,13.622433313465118,16.250033253860472,13.622433313465118C16.250033253860472,13.622433313465118,16.250033253860472,6.377593313465119,16.250033253860472,6.377593313465119C16.250033253860472,6.377593313465119,10.000003253860474,2.7591633134651183,10.000003253860474,2.7591633134651183ZM10.000003253860474,13.333333313465118C8.159053253860474,13.333333313465118,6.666663253860474,11.840933313465118,6.666663253860474,10.000003313465118C6.666663253860474,8.159053313465119,8.159053253860474,6.6666633134651185,10.000003253860474,6.6666633134651185C11.840913253860474,6.6666633134651185,13.333333253860474,8.159053313465119,13.333333253860474,10.000003313465118C13.333333253860474,11.840933313465118,11.840913253860474,13.333333313465118,10.000003253860474,13.333333313465118ZM10.000003253860474,11.666633313465118C10.920503253860474,11.666633313465118,11.666663253860474,10.920533313465118,11.666663253860474,10.000003313465118C11.666663253860474,9.079503313465118,10.920503253860474,8.333333313465118,10.000003253860474,8.333333313465118C9.079503253860473,8.333333313465118,8.333333253860474,9.079503313465118,8.333333253860474,10.000003313465118C8.333333253860474,10.920533313465118,9.079503253860473,11.666633313465118,10.000003253860474,11.666633313465118Z"
                  fill="#FFFFFF" fill-opacity="1"/>
        </g>
    </g>
</svg>