<svg xmlns="http://www.w3.org/2000/svg" xmlns:xlink="http://www.w3.org/1999/xlink" fill="none" version="1.1" width="13"
     height="9" viewBox="0 0 13 9">
    <g>
        <path d="M4.0813500000000005,9.20824L12.8448,0.862069Q12.9168,0.793478,12.9571,0.702548Q12.9974,0.611618,12.9999,0.5121914Q13,0.50609982,13,0.50000639145L12.9999,0.4881663Q12.9977,0.394966,12.962,0.308824Q12.9264,0.22268100000000002,12.8621,0.15517199999999998Q12.7913,0.08085500000000001,12.697,0.04042800000000002Q12.6026,0,12.5,0Q12.4932,0,12.4863,0.00018699999999999273Q12.3936,0.002726000000000006,12.308,0.03834700000000002Q12.2223,0.07396799999999998,12.1552,0.13793100000000003L4.118650000000001,7.79176L0.863599,4.34726L0.863406,4.34706Q0.7925690000000001,4.2721,0.697852,4.2312899999999996Q0.603135,4.19048,0.500000421702,4.19048L0.4882536,4.1906099999999995Q0.395533,4.1927900000000005,0.309762,4.22808Q0.223991,4.26337,0.156582,4.32707Q0.08162199999999997,4.3979099999999995,0.040810999999999986,4.4926200000000005Q0,4.58734,0,4.69048L0.000138000000000027,4.70222Q0.0023170000000000135,4.79494,0.037605,4.88071Q0.07289299999999999,4.96649,0.136594,5.0339L4.0813500000000005,9.20824Z"
              fill-rule="evenodd" fill="#36D1A1" fill-opacity="1"/>
    </g>
</svg>