<svg xmlns="http://www.w3.org/2000/svg" xmlns:xlink="http://www.w3.org/1999/xlink" fill="none" version="1.1" width="16"
     height="16" viewBox="0 0 16 16">
    <defs>
        <clipPath id="master_svg0_0_3089">
            <rect x="0" y="0" width="16" height="16" rx="0"/>
        </clipPath>
    </defs>
    <g clip-path="url(#master_svg0_0_3089)">
        <g>
            <path d="M5.333333373069763,13.333219967651367C5.333333373069763,13.333219967651367,5.333333373069763,14.621519967651366,5.333333373069763,14.621519967651366C5.333333373069763,14.805619967651367,5.184093373069763,14.954819967651368,5.000003373069763,14.954819967651368C4.922023373069763,14.954819967651368,4.846513373069763,14.927519967651367,4.786603373069763,14.877619967651368C4.786603373069763,14.877619967651368,2.040620373069763,12.589219967651367,2.040620373069763,12.589219967651367C1.8991933730697632,12.471419967651368,1.8800863730697632,12.261219967651368,1.9979403730697631,12.119819967651367C2.0612733730697634,12.043819967651368,2.1550933730697635,11.999819967651367,2.254020373069763,11.999819967651367C2.254020373069763,11.999819967651367,12.000033373069764,11.999819967651367,12.000033373069764,11.999819967651367C12.736433373069763,11.999819967651367,13.333333373069763,11.402919967651368,13.333333373069763,10.666529967651368C13.333333373069763,10.666529967651368,13.333333373069763,5.333229967651367,13.333333373069763,5.333229967651367C13.333333373069763,5.333229967651367,14.666633373069763,5.333229967651367,14.666633373069763,5.333229967651367C14.666633373069763,5.333229967651367,14.666633373069763,10.666529967651368,14.666633373069763,10.666529967651368C14.666633373069763,12.139319967651367,13.472733373069763,13.333219967651367,12.000033373069764,13.333219967651367C12.000033373069764,13.333219967651367,5.333333373069763,13.333219967651367,5.333333373069763,13.333219967651367ZM10.666663373069763,2.666569967651367C10.666663373069763,2.666569967651367,10.666663373069763,1.3782529676513673,10.666663373069763,1.3782529676513673C10.666663373069763,1.1941599676513672,10.815933373069763,1.0449199676513672,11.000003373069763,1.0449199676513672C11.078003373069762,1.0449199676513672,11.153463373069764,1.072259967651367,11.213403373069763,1.122179967651367C11.213403373069763,1.122179967651367,13.959433373069762,3.410499967651367,13.959433373069762,3.410499967651367C14.100833373069763,3.528349967651367,14.119933373069763,3.7385499676513674,14.002033373069763,3.879969967651367C13.938733373069763,3.955969967651367,13.844933373069763,3.999909967651367,13.746033373069762,3.999909967651367C13.746033373069762,3.999909967651367,4.000003373069763,3.999899967651367,4.000003373069763,3.999899967651367C3.2636233730697635,3.999899967651367,2.6666633730697633,4.596849967651368,2.6666633730697633,5.333229967651367C2.6666633730697633,5.333229967651367,2.6666633730697633,10.666529967651368,2.6666633730697633,10.666529967651368C2.6666633730697633,10.666529967651368,1.3333333730697632,10.666529967651368,1.3333333730697632,10.666529967651368C1.3333333730697632,10.666529967651368,1.3333333730697632,5.333229967651367,1.3333333730697632,5.333229967651367C1.3333333730697632,3.860469967651367,2.527243373069763,2.666569967651367,4.000003373069763,2.666569967651367C4.000003373069763,2.666569967651367,10.666663373069763,2.666569967651367,10.666663373069763,2.666569967651367Z"
                  fill="#000000" fill-opacity="1"/>
        </g>
    </g>
</svg>