<svg width="28" height="28" viewBox="0 0 28 28" fill="none" xmlns="http://www.w3.org/2000/svg">
    <g id="icon-&#233;&#166;&#150;&#233;&#161;&#181;">
        <g id="Frame">
            <path id="Vector"
                  d="M23 23H5C4.44772 23 4 22.5523 4 22V14.4868C4 14.1978 4.12501 13.9229 4.34282 13.733L8 10.5443V6C8 5.44772 8.44772 5 9 5H23C23.5523 5 24 5.44772 24 6V22C24 22.5523 23.5523 23 23 23ZM11 21H14V14.9416L10 11.454L6 14.9416V21H9V17H11V21ZM16 21H22V7H10V9.12729C10.2344 9.12729 10.4689 9.20938 10.6572 9.37355L15.6572 13.733C15.875 13.9229 16 14.1978 16 14.4868V21ZM18 13H20V15H18V13ZM18 17H20V19H18V17ZM18 9H20V11H18V9ZM14 9H16V11H14V9Z"
                  fill="#CBCBCB"/>
        </g>
    </g>
</svg>
