<svg width="28" height="28" viewBox="0 0 28 28" fill="none" xmlns="http://www.w3.org/2000/svg">
    <g id="icon-&#229;&#143;&#145;&#231;&#142;&#176;">
        <g id="Frame">
            <g id="Vector">
                <path d="M7.32244 7.96577C7.42367 7.85395 7.5282 7.74405 7.63604 7.6362C8.11945 7.1528 8.64417 6.73588 9.19883 6.38544C8.8849 6.29891 8.60274 6.24766 8.35542 6.22901C7.78308 6.18584 7.53243 6.32175 7.42553 6.42865C7.31863 6.53555 7.18272 6.7862 7.22589 7.35853C7.23974 7.54216 7.27156 7.74499 7.32244 7.96577ZM22.7257 16.2109C22.7873 16.3339 22.8463 16.4559 22.9028 16.5768C23.3793 17.5979 23.6941 18.5946 23.7616 19.4905C23.8289 20.3821 23.656 21.3109 22.9819 21.985C22.3077 22.6591 21.379 22.832 20.4874 22.7648C19.7068 22.7059 18.8497 22.4593 17.9666 22.0817L17.964 22.0829C17.8109 22.0174 17.657 21.948 17.5025 21.8748C15.4695 20.9125 13.1435 19.2207 10.9599 17.0371C8.77855 14.8558 7.08807 12.5323 6.1252 10.5009C6.05178 10.346 5.98205 10.1917 5.91629 10.0381L5.91734 10.036C5.53815 9.1507 5.29057 8.2914 5.23155 7.50895C5.1643 6.61731 5.33717 5.68858 6.01132 5.01444C6.68547 4.34029 7.61419 4.16742 8.50583 4.23467C9.40174 4.30224 10.3984 4.61703 11.4195 5.09353C11.5425 5.15096 11.6667 5.21108 11.7918 5.27384C14.7623 4.52515 18.0404 5.3126 20.364 7.6362C22.6882 9.96047 23.4755 13.2397 22.7257 16.2109ZM21.6128 18.8044C21.2627 19.3579 20.8465 19.8816 20.364 20.3641C20.257 20.4711 20.1479 20.5749 20.037 20.6754C20.2553 20.7254 20.456 20.7567 20.6378 20.7704C21.2101 20.8136 21.4608 20.6777 21.5677 20.5708C21.6746 20.4639 21.8105 20.2132 21.7673 19.6409C21.7488 19.3954 21.6982 19.1156 21.6128 18.8044ZM7.63604 20.3641C5.37241 18.1005 4.56666 14.9311 5.21877 12.0226C6.30105 14.0034 7.92374 16.1223 9.89924 18.0978C11.8763 20.0748 13.9971 21.6986 15.9794 22.781C13.0705 23.4339 9.90015 22.6282 7.63604 20.3641Z"
                      fill="black"/>
                <path d="M7.32244 7.96577C7.42367 7.85395 7.5282 7.74405 7.63604 7.6362C8.11945 7.1528 8.64417 6.73588 9.19883 6.38544C8.8849 6.29891 8.60274 6.24766 8.35542 6.22901C7.78308 6.18584 7.53243 6.32175 7.42553 6.42865C7.31863 6.53555 7.18272 6.7862 7.22589 7.35853C7.23974 7.54216 7.27156 7.74499 7.32244 7.96577ZM22.7257 16.2109C22.7873 16.3339 22.8463 16.4559 22.9028 16.5768C23.3793 17.5979 23.6941 18.5946 23.7616 19.4905C23.8289 20.3821 23.656 21.3109 22.9819 21.985C22.3077 22.6591 21.379 22.832 20.4874 22.7648C19.7068 22.7059 18.8497 22.4593 17.9666 22.0817L17.964 22.0829C17.8109 22.0174 17.657 21.948 17.5025 21.8748C15.4695 20.9125 13.1435 19.2207 10.9599 17.0371C8.77855 14.8558 7.08807 12.5323 6.1252 10.5009C6.05178 10.346 5.98205 10.1917 5.91629 10.0381L5.91734 10.036C5.53815 9.1507 5.29057 8.2914 5.23155 7.50895C5.1643 6.61731 5.33717 5.68858 6.01132 5.01444C6.68547 4.34029 7.61419 4.16742 8.50583 4.23467C9.40174 4.30224 10.3984 4.61703 11.4195 5.09353C11.5425 5.15096 11.6667 5.21108 11.7918 5.27384C14.7623 4.52515 18.0404 5.3126 20.364 7.6362C22.6882 9.96047 23.4755 13.2397 22.7257 16.2109ZM21.6128 18.8044C21.2627 19.3579 20.8465 19.8816 20.364 20.3641C20.257 20.4711 20.1479 20.5749 20.037 20.6754C20.2553 20.7254 20.456 20.7567 20.6378 20.7704C21.2101 20.8136 21.4608 20.6777 21.5677 20.5708C21.6746 20.4639 21.8105 20.2132 21.7673 19.6409C21.7488 19.3954 21.6982 19.1156 21.6128 18.8044ZM7.63604 20.3641C5.37241 18.1005 4.56666 14.9311 5.21877 12.0226C6.30105 14.0034 7.92374 16.1223 9.89924 18.0978C11.8763 20.0748 13.9971 21.6986 15.9794 22.781C13.0705 23.4339 9.90015 22.6282 7.63604 20.3641Z"
                      fill="url(#paint0_linear_29_453)"/>
            </g>
        </g>
    </g>
    <defs>
        <linearGradient id="paint0_linear_29_453" x1="14.3875" y1="4.22119" x2="14.3875" y2="23.0002"
                        gradientUnits="userSpaceOnUse">
            <stop stop-color="#53B99D"/>
            <stop offset="1" stop-color="#36D1A1"/>
        </linearGradient>
    </defs>
</svg>
