<svg width="28" height="28" viewBox="0 0 28 28" fill="none" xmlns="http://www.w3.org/2000/svg">
    <g id="icon-&#230;&#156;&#141;&#229;&#138;&#161;">
        <g id="Frame">
            <path id="Vector"
                  d="M5.16113 6.46924C7.58508 4.04529 11.4472 3.93599 14.0008 6.14133C16.5528 3.93599 20.4149 4.04529 22.8388 6.46924C25.2584 8.88884 25.3716 12.7414 23.1785 15.2952L15.4142 23.0862C14.6686 23.8318 13.4809 23.8657 12.6952 23.1879L12.5858 23.0862L4.82141 15.2952C2.62828 12.7414 2.74152 8.88884 5.16113 6.46924ZM6.57534 7.88345C4.86819 9.5906 4.81942 12.3281 6.42902 14.0942L6.57534 14.2474L14 21.672L19.3026 16.368L15.7677 12.8332L14.7071 13.8939C13.5355 15.0654 11.636 15.0654 10.4644 13.8939C9.29286 12.7223 9.29286 10.8228 10.4644 9.65122L12.5656 7.54872C10.8529 6.17762 8.37076 6.24042 6.7286 7.73712L6.57534 7.88345ZM15.0606 10.7119C15.4511 10.3213 16.0843 10.3213 16.4748 10.7119L20.7168 14.9538L21.4246 14.2474C23.1819 12.4901 23.1819 9.64081 21.4246 7.88345C19.7174 6.1763 16.9799 6.12752 15.2139 7.73712L15.0606 7.88345L11.8786 11.0654C11.516 11.4281 11.4901 11.9999 11.8009 12.3924L11.8786 12.4796C12.2413 12.8423 12.8131 12.8682 13.2056 12.5573L13.2929 12.4796L15.0606 10.7119Z"
                  fill="#CBCBCB"/>
        </g>
    </g>
</svg>
