<svg width="28" height="28" viewBox="0 0 28 28" fill="none" xmlns="http://www.w3.org/2000/svg">
    <g id="icon-&#230;&#156;&#141;&#229;&#138;&#161;">
        <g id="Frame">
            <g id="Vector">
                <path d="M16.1213 12.4796C15.7308 12.0891 15.0976 12.0891 14.7071 12.4796L14 13.1868C13.2189 13.9678 11.9526 13.9678 11.1715 13.1868C10.3905 12.4057 10.3905 11.1394 11.1715 10.3583L16.8022 4.72617C18.9061 4.25022 21.2008 4.83124 22.8388 6.46924C25.2582 8.8886 25.3716 12.7407 23.1792 15.2944L21.071 17.4294L16.1213 12.4796ZM5.16113 6.46924C7.33452 4.29584 10.6641 3.98332 13.17 5.53165L9.75732 8.94411C8.19523 10.5062 8.19523 13.0389 9.75732 14.601C11.2721 16.1157 13.6995 16.1616 15.2695 14.7387L15.4142 14.601L19.6568 18.8436L15.4142 23.0862C14.6331 23.8673 13.3668 23.8673 12.5858 23.0862L5.16113 15.6616C2.62272 13.1232 2.62272 9.00764 5.16113 6.46924Z"
                      fill="black"/>
                <path d="M16.1213 12.4796C15.7308 12.0891 15.0976 12.0891 14.7071 12.4796L14 13.1868C13.2189 13.9678 11.9526 13.9678 11.1715 13.1868C10.3905 12.4057 10.3905 11.1394 11.1715 10.3583L16.8022 4.72617C18.9061 4.25022 21.2008 4.83124 22.8388 6.46924C25.2582 8.8886 25.3716 12.7407 23.1792 15.2944L21.071 17.4294L16.1213 12.4796ZM5.16113 6.46924C7.33452 4.29584 10.6641 3.98332 13.17 5.53165L9.75732 8.94411C8.19523 10.5062 8.19523 13.0389 9.75732 14.601C11.2721 16.1157 13.6995 16.1616 15.2695 14.7387L15.4142 14.601L19.6568 18.8436L15.4142 23.0862C14.6331 23.8673 13.3668 23.8673 12.5858 23.0862L5.16113 15.6616C2.62272 13.1232 2.62272 9.00764 5.16113 6.46924Z"
                      fill="url(#paint0_linear_29_449)"/>
            </g>
        </g>
    </g>
    <defs>
        <linearGradient id="paint0_linear_29_449" x1="14" y1="4.56543" x2="14" y2="23.672"
                        gradientUnits="userSpaceOnUse">
            <stop stop-color="#53B99D"/>
            <stop offset="1" stop-color="#36D1A1"/>
        </linearGradient>
    </defs>
</svg>
