<svg width="28" height="28" viewBox="0 0 28 28" fill="none" xmlns="http://www.w3.org/2000/svg">
    <g id="icon-&#229;&#143;&#145;&#231;&#142;&#176;">
        <g id="Frame">
            <path id="Vector"
                  d="M5.91762 10.0366C5.32984 11.2333 5 12.5792 5 13.9999C5 18.9704 9.02944 22.9999 14 22.9999C15.4216 22.9999 16.7684 22.6696 17.9657 22.081C18.8385 22.4544 19.6848 22.6991 20.4564 22.762C21.3582 22.8356 22.3 22.6665 22.9818 21.9847C23.7339 21.2325 23.8625 20.1689 23.7279 19.1727C23.6052 18.2638 23.2481 17.2537 22.726 16.2114C22.9051 15.503 23 14.7619 23 13.9999C23 9.02929 18.9706 4.99986 14 4.99986C13.2389 4.99986 12.4987 5.09454 11.791 5.27318C10.7474 4.7498 9.73605 4.39172 8.8261 4.26834C7.82897 4.13315 6.76406 4.26128 6.01121 5.01413C5.3287 5.69664 5.16001 6.63956 5.2341 7.54233C5.29752 8.315 5.54313 9.16247 5.91762 10.0366ZM7.3224 7.96574C7.2734 7.75321 7.24204 7.55715 7.2274 7.37873C7.17928 6.79243 7.31727 6.53649 7.42543 6.42834C7.54452 6.30925 7.84797 6.15403 8.55739 6.25021C8.75482 6.27698 8.96951 6.32189 9.2 6.38547C8.50364 6.82527 7.87203 7.35784 7.3224 7.96574ZM21.6124 18.803C21.6751 19.0316 21.7195 19.2445 21.7459 19.4404C21.8416 20.1485 21.6865 20.4515 21.5676 20.5705C21.4595 20.6785 21.204 20.8163 20.6189 20.7686C20.4419 20.7542 20.2475 20.7233 20.0368 20.675C20.6427 20.1268 21.1736 19.4971 21.6124 18.803ZM17.8812 19.8264C16.2046 18.9482 14.2571 17.5026 12.3752 15.6207C10.4954 13.741 9.05092 11.7956 8.17241 10.1203C9.06357 8.78465 10.4012 7.77312 11.9693 7.29866C12.6108 7.10457 13.2923 6.99986 14 6.99986C17.866 6.99986 21 10.1339 21 13.9999C21 14.7083 20.8951 15.3904 20.7006 16.0325C20.2261 17.5991 19.2155 18.9356 17.8812 19.8264ZM15.6052 20.8152C15.0901 20.9359 14.5528 20.9999 14 20.9999C10.134 20.9999 7 17.8658 7 13.9999C7 13.4476 7.06377 12.9109 7.18429 12.3963C8.14883 13.913 9.43475 15.5087 10.961 17.0349C12.489 18.563 14.0868 19.8502 15.6052 20.8152Z"
                  fill="#CBCBCB"/>
        </g>
    </g>
</svg>
