<svg width="28" height="28" viewBox="0 0 28 28" fill="none" xmlns="http://www.w3.org/2000/svg">
    <g id="icon-&#230;&#136;&#145;&#231;&#154;&#132;">
        <g id="Frame">
            <path id="Vector"
                  d="M14 24C8.47715 24 4 19.5228 4 14C4 8.47715 8.47715 4 14 4C19.5228 4 24 8.47715 24 14C24 19.5228 19.5228 24 14 24ZM14 22C18.4183 22 22 18.4183 22 14C22 9.58172 18.4183 6 14 6C9.58172 6 6 9.58172 6 14C6 18.4183 9.58172 22 14 22ZM9 14H11C11 15.6569 12.3431 17 14 17C15.6569 17 17 15.6569 17 14H19C19 16.7614 16.7614 19 14 19C11.2386 19 9 16.7614 9 14Z"
                  fill="#CBCBCB"/>
        </g>
    </g>
</svg>
